<?xml version="1.0" encoding="UTF-8"?>
<svg width="26px" height="26px" viewBox="0 0 26 26" version="1.1" xmlns="http://www.w3.org/2000/svg" xmlns:xlink="http://www.w3.org/1999/xlink">
    <!-- Generator: Sketch 51.1 (57501) - http://www.bohemiancoding.com/sketch -->
    <title>pos-active</title>
    <desc>Created with Sketch.</desc>
    <defs></defs>
    <g id="pos-active" stroke="none" stroke-width="1" fill="none" fill-rule="evenodd">
        <path d="M16,23 C16,23.5522847 15.5522847,24 15,24 L2,24 C1.44771525,24 1,23.5522847 1,23 L1,3 C1,2.44771525 1.44771525,2 2,2 L15,2 C15.5522847,2 16,2.44771525 16,3 L16,10 C16,9.44771525 16.4477153,9 17,9 L24,9 C24.5522847,9 25,9.44771525 25,10 L25,23 C25,23.5522847 24.5522847,24 24,24 L17,24 C16.4477153,24 16,23.5522847 16,23 Z M17,3 L24,3 L24,8 L17,8 L17,3 Z M4,4 C3.44771525,4 3,4.44771525 3,5 L3,9 C3,9.55228475 3.44771525,10 4,10 L13,10 C13.5522847,10 14,9.55228475 14,9 L14,5 C14,4.44771525 13.5522847,4 13,4 L4,4 Z M4,11 C3.44771525,11 3,11.4477153 3,12 L3,13 C3,13.5522847 3.44771525,14 4,14 L5,14 C5.55228475,14 6,13.5522847 6,13 L6,12 C6,11.4477153 5.55228475,11 5,11 L4,11 Z M8,11 C7.44771525,11 7,11.4477153 7,12 L7,13 C7,13.5522847 7.44771525,14 8,14 L9,14 C9.55228475,14 10,13.5522847 10,13 L10,12 C10,11.4477153 9.55228475,11 9,11 L8,11 Z M12,11 C11.4477153,11 11,11.4477153 11,12 L11,13 C11,13.5522847 11.4477153,14 12,14 L13,14 C13.5522847,14 14,13.5522847 14,13 L14,12 C14,11.4477153 13.5522847,11 13,11 L12,11 Z M4,15 C3.44771525,15 3,15.4477153 3,16 L3,17 C3,17.5522847 3.44771525,18 4,18 L5,18 C5.55228475,18 6,17.5522847 6,17 L6,16 C6,15.4477153 5.55228475,15 5,15 L4,15 Z M8,15 C7.44771525,15 7,15.4477153 7,16 L7,17 C7,17.5522847 7.44771525,18 8,18 L9,18 C9.55228475,18 10,17.5522847 10,17 L10,16 C10,15.4477153 9.55228475,15 9,15 L8,15 Z M12,15 C11.4477153,15 11,15.4477153 11,16 L11,17 C11,17.5522847 11.4477153,18 12,18 L13,18 C13.5522847,18 14,17.5522847 14,17 L14,16 C14,15.4477153 13.5522847,15 13,15 L12,15 Z M4,19 C3.44771525,19 3,19.4477153 3,20 L3,21 C3,21.5522847 3.44771525,22 4,22 L5,22 C5.55228475,22 6,21.5522847 6,21 L6,20 C6,19.4477153 5.55228475,19 5,19 L4,19 Z M8,19 C7.44771525,19 7,19.4477153 7,20 L7,21 C7,21.5522847 7.44771525,22 8,22 L9,22 C9.55228475,22 10,21.5522847 10,21 L10,20 C10,19.4477153 9.55228475,19 9,19 L8,19 Z M12,19 C11.4477153,19 11,19.4477153 11,20 L11,21 C11,21.5522847 11.4477153,22 12,22 L13,22 C13.5522847,22 14,21.5522847 14,21 L14,20 C14,19.4477153 13.5522847,19 13,19 L12,19 Z" id="Combined-Shape" fill="#DB324D"></path>
    </g>
</svg>